<mxfile host="Electron" agent="Mozilla/5.0 (X11; Linux x86_64) AppleWebKit/537.36 (KHTML, like Gecko) draw.io/26.0.3 Chrome/130.0.6723.137 Electron/33.2.1 Safari/537.36" version="26.0.3">
  <diagram name="Page-1" id="1fyL57aT-5AhG2xuCyjH">
    <mxGraphModel dx="1434" dy="871" grid="1" gridSize="10" guides="1" tooltips="1" connect="1" arrows="1" fold="1" page="1" pageScale="1" pageWidth="850" pageHeight="1100" math="0" shadow="0">
      <root>
        <mxCell id="0" />
        <mxCell id="1" parent="0" />
        <mxCell id="iu570hvqjQdjH_lrk5VT-14" value="" style="rounded=0;whiteSpace=wrap;html=1;" vertex="1" parent="1">
          <mxGeometry y="300" width="1120" height="140" as="geometry" />
        </mxCell>
        <mxCell id="iu570hvqjQdjH_lrk5VT-4" style="edgeStyle=orthogonalEdgeStyle;rounded=0;orthogonalLoop=1;jettySize=auto;html=1;exitX=1;exitY=0.5;exitDx=0;exitDy=0;entryX=0;entryY=0.5;entryDx=0;entryDy=0;" edge="1" parent="1" source="iu570hvqjQdjH_lrk5VT-1" target="iu570hvqjQdjH_lrk5VT-2">
          <mxGeometry relative="1" as="geometry" />
        </mxCell>
        <mxCell id="iu570hvqjQdjH_lrk5VT-1" value="Data Acquisition" style="rounded=1;whiteSpace=wrap;html=1;" vertex="1" parent="1">
          <mxGeometry x="20" y="360" width="120" height="60" as="geometry" />
        </mxCell>
        <mxCell id="iu570hvqjQdjH_lrk5VT-5" style="edgeStyle=orthogonalEdgeStyle;rounded=0;orthogonalLoop=1;jettySize=auto;html=1;exitX=1;exitY=0.5;exitDx=0;exitDy=0;" edge="1" parent="1" source="iu570hvqjQdjH_lrk5VT-10" target="iu570hvqjQdjH_lrk5VT-3">
          <mxGeometry relative="1" as="geometry" />
        </mxCell>
        <mxCell id="iu570hvqjQdjH_lrk5VT-2" value="Load Data into Observability stack" style="rounded=1;whiteSpace=wrap;html=1;" vertex="1" parent="1">
          <mxGeometry x="180" y="360" width="120" height="60" as="geometry" />
        </mxCell>
        <mxCell id="iu570hvqjQdjH_lrk5VT-7" style="edgeStyle=orthogonalEdgeStyle;rounded=0;orthogonalLoop=1;jettySize=auto;html=1;exitX=1;exitY=0.5;exitDx=0;exitDy=0;entryX=0;entryY=0.5;entryDx=0;entryDy=0;" edge="1" parent="1" source="iu570hvqjQdjH_lrk5VT-3" target="iu570hvqjQdjH_lrk5VT-6">
          <mxGeometry relative="1" as="geometry" />
        </mxCell>
        <mxCell id="iu570hvqjQdjH_lrk5VT-3" value="Data Preparation&lt;div&gt;Split Train/Test&lt;/div&gt;" style="rounded=1;whiteSpace=wrap;html=1;" vertex="1" parent="1">
          <mxGeometry x="650" y="360" width="120" height="60" as="geometry" />
        </mxCell>
        <mxCell id="iu570hvqjQdjH_lrk5VT-13" style="edgeStyle=orthogonalEdgeStyle;rounded=0;orthogonalLoop=1;jettySize=auto;html=1;exitX=1;exitY=0.5;exitDx=0;exitDy=0;entryX=0;entryY=0.5;entryDx=0;entryDy=0;" edge="1" parent="1" source="iu570hvqjQdjH_lrk5VT-6" target="iu570hvqjQdjH_lrk5VT-12">
          <mxGeometry relative="1" as="geometry" />
        </mxCell>
        <mxCell id="iu570hvqjQdjH_lrk5VT-6" value="Release/Store Datas and metadatas" style="rounded=1;whiteSpace=wrap;html=1;" vertex="1" parent="1">
          <mxGeometry x="800" y="360" width="120" height="60" as="geometry" />
        </mxCell>
        <mxCell id="iu570hvqjQdjH_lrk5VT-9" value="" style="edgeStyle=orthogonalEdgeStyle;rounded=0;orthogonalLoop=1;jettySize=auto;html=1;exitX=1;exitY=0.5;exitDx=0;exitDy=0;" edge="1" parent="1" source="iu570hvqjQdjH_lrk5VT-2" target="iu570hvqjQdjH_lrk5VT-8">
          <mxGeometry relative="1" as="geometry">
            <mxPoint x="390" y="390" as="sourcePoint" />
            <mxPoint x="620" y="390" as="targetPoint" />
          </mxGeometry>
        </mxCell>
        <mxCell id="iu570hvqjQdjH_lrk5VT-8" value="Data Analysis" style="rounded=1;whiteSpace=wrap;html=1;" vertex="1" parent="1">
          <mxGeometry x="340" y="360" width="120" height="60" as="geometry" />
        </mxCell>
        <mxCell id="iu570hvqjQdjH_lrk5VT-11" value="" style="edgeStyle=orthogonalEdgeStyle;rounded=0;orthogonalLoop=1;jettySize=auto;html=1;exitX=1;exitY=0.5;exitDx=0;exitDy=0;" edge="1" parent="1" source="iu570hvqjQdjH_lrk5VT-8" target="iu570hvqjQdjH_lrk5VT-10">
          <mxGeometry relative="1" as="geometry">
            <mxPoint x="460" y="390" as="sourcePoint" />
            <mxPoint x="650" y="390" as="targetPoint" />
          </mxGeometry>
        </mxCell>
        <mxCell id="iu570hvqjQdjH_lrk5VT-10" value="Data Transformation" style="rounded=1;whiteSpace=wrap;html=1;" vertex="1" parent="1">
          <mxGeometry x="500" y="360" width="120" height="60" as="geometry" />
        </mxCell>
        <mxCell id="iu570hvqjQdjH_lrk5VT-16" style="edgeStyle=orthogonalEdgeStyle;rounded=0;orthogonalLoop=1;jettySize=auto;html=1;exitX=0.5;exitY=0;exitDx=0;exitDy=0;entryX=0.5;entryY=0;entryDx=0;entryDy=0;dashed=1;dashPattern=8 8;" edge="1" parent="1" source="iu570hvqjQdjH_lrk5VT-12" target="iu570hvqjQdjH_lrk5VT-2">
          <mxGeometry relative="1" as="geometry">
            <Array as="points">
              <mxPoint x="1030" y="330" />
              <mxPoint x="240" y="330" />
            </Array>
          </mxGeometry>
        </mxCell>
        <mxCell id="iu570hvqjQdjH_lrk5VT-12" value="Trigger MLOps pipeline" style="rounded=1;whiteSpace=wrap;html=1;dashed=1;dashPattern=12 12;" vertex="1" parent="1">
          <mxGeometry x="970" y="360" width="120" height="60" as="geometry" />
        </mxCell>
        <mxCell id="iu570hvqjQdjH_lrk5VT-17" value="Model evalution Feedback loop" style="text;html=1;align=center;verticalAlign=middle;whiteSpace=wrap;rounded=0;" vertex="1" parent="1">
          <mxGeometry x="530" y="300" width="110" height="30" as="geometry" />
        </mxCell>
      </root>
    </mxGraphModel>
  </diagram>
</mxfile>
